<svg width="1000" height="1000" viewBox="0 0 500 500" xmlns="http://www.w3.org/2000/svg" role="img" aria-label="Praxis premium logo small wordmark">
  <g fill="none" stroke="#0b0b0b" stroke-linejoin="miter" stroke-linecap="square">
    <path d="M 130 100 L 370 100 L 370 188 M 370 252 L 370 340 L 130 340 L 130 252 M 130 188 L 130 100" stroke-width="10" />
    <line x1="130" y1="220" x2="370" y2="220" stroke-width="7" />
  </g>

  <g fill="#0b0b0b">
    <circle cx="130" cy="220" r="16" />
    <circle cx="306" cy="220" r="11" />
    <circle cx="370" cy="220" r="23" />
  </g>

  <g transform="translate(228 220)">
    <circle cx="0" cy="0" r="35" fill="white" stroke="#0b0b0b" stroke-width="6" />
    <circle cx="0" cy="0" r="20" fill="white" stroke="#0b0b0b" stroke-width="6" />
    <circle cx="0" cy="0" r="9" fill="#0b0b0b" />
  </g>

  <g fill="#0b0b0b">
    <path d="M120.53 362.44H137.19Q140.76 362.44 144.084 363.14Q147.41 363.84 149.93 365.485Q152.45 367.13 153.954 369.895Q155.46 372.659 155.46 376.79Q155.46 381.48 153.85 384.35Q152.24 387.22 149.51 388.795Q146.78 390.37 143.175 390.93Q139.57 391.49 135.65 391.49H129.35V412H120.53ZM134.67 383.93Q136.56 383.93 138.59 383.789Q140.62 383.65 142.335 382.95Q144.05 382.25 145.135 380.85Q146.22 379.45 146.22 376.93Q146.22 374.62 145.24 373.255Q144.26 371.89 142.72 371.155Q141.18 370.42 139.29 370.21Q137.4 370 135.65 370H129.35V383.93Z" /><path d="M168.3 362.44H185.52Q189.09 362.44 192.415 363.105Q195.74 363.77 198.33 365.38Q200.92 366.99 202.46 369.72Q204 372.45 204 376.65Q204 382.04 201.025 385.68Q198.05 389.32 192.52 390.09L205.68 412H195.04L183.56 391H177.12V412H168.3ZM183.98 383.44Q185.87 383.44 187.76 383.265Q189.65 383.09 191.225 382.424Q192.8 381.76 193.78 380.395Q194.76 379.03 194.76 376.58Q194.76 374.409 193.85 373.08Q192.94 371.75 191.47 371.085Q190 370.42 188.215 370.21Q186.43 370 184.75 370H177.12V383.44Z" /><path d="M233.43 362.44H241.06L262.41 412H252.33L247.71 400.66H226.22L221.74 412H211.87ZM244.63 393.1 237 372.94 229.23 393.1Z" /><path d="M285.05 386.1 268.53 362.44H279.66L291.35 380.78L302.9 362.44H313.61L297.37 386.1L315.36 412H304.16L291.07 391.07L278.05 412H267.41Z" /><path d="M325.68 362.44H334.5V412H325.68Z" /><path d="M374.64 373.08Q373.24 371.05 370.895 370.105Q368.55 369.159 365.96 369.159Q364.42 369.159 362.985 369.51Q361.55 369.86 360.395 370.63Q359.24 371.4 358.539 372.625Q357.84 373.85 357.84 375.53Q357.84 378.05 359.59 379.38Q361.34 380.71 363.929 381.69Q366.52 382.67 369.6 383.58Q372.68 384.49 375.27 386.1Q377.86 387.71 379.61 390.37Q381.36 393.03 381.36 397.44Q381.36 401.43 379.89 404.405Q378.42 407.38 375.935 409.34Q373.45 411.3 370.159 412.28Q366.87 413.26 363.23 413.26Q358.61 413.26 354.34 411.72Q350.07 410.18 346.99 406.54L353.64 400.1Q355.25 402.55 357.875 403.914Q360.5 405.28 363.44 405.28Q364.98 405.28 366.52 404.86Q368.06 404.44 369.32 403.6Q370.58 402.76 371.35 401.465Q372.12 400.17 372.12 398.49Q372.12 395.76 370.37 394.289Q368.62 392.82 366.03 391.805Q363.44 390.79 360.36 389.88Q357.28 388.97 354.69 387.395Q352.1 385.82 350.35 383.195Q348.599 380.57 348.599 376.159Q348.599 372.31 350.174 369.51Q351.75 366.71 354.305 364.855Q356.86 363 360.15 362.09Q363.44 361.18 366.87 361.18Q370.79 361.18 374.465 362.37Q378.14 363.56 381.08 366.29Z" />
  </g>
</svg>
