<svg width="1000" height="1000" viewBox="0 0 500 500" xmlns="http://www.w3.org/2000/svg" role="img" aria-label="Praxis premium logo">
  <g fill="none" stroke="#0b0b0b" stroke-linejoin="miter" stroke-linecap="square">
    <path d="M 130 100 L 370 100 L 370 188 M 370 252 L 370 340 L 130 340 L 130 252 M 130 188 L 130 100" stroke-width="10" />
    <line x1="130" y1="220" x2="370" y2="220" stroke-width="7" />
  </g>

  <g fill="#0b0b0b">
    <circle cx="130" cy="220" r="16" />
    <circle cx="306" cy="220" r="11" />
    <circle cx="370" cy="220" r="23" />
  </g>

  <g transform="translate(228 220)">
    <circle cx="0" cy="0" r="35" fill="white" stroke="#0b0b0b" stroke-width="6" />
    <circle cx="0" cy="0" r="20" fill="white" stroke="#0b0b0b" stroke-width="6" />
    <circle cx="0" cy="0" r="9" fill="#0b0b0b" />
  </g>

  <g fill="#0b0b0b">
    <path d="M110.504 363.192H128.591Q132.468 363.192 136.077 363.952Q139.688 364.712 142.423 366.498Q145.16 368.284 146.793 371.286Q148.428 374.288 148.428 378.772Q148.428 383.864 146.68 386.98Q144.932 390.096 141.968 391.806Q139.004 393.516 135.089 394.124Q131.176 394.731 126.92 394.731H120.08V417H110.504ZM125.856 386.524Q127.908 386.524 130.112 386.372Q132.316 386.22 134.178 385.46Q136.04 384.7 137.218 383.18Q138.396 381.66 138.396 378.924Q138.396 376.416 137.332 374.933Q136.268 373.452 134.596 372.654Q132.924 371.856 130.872 371.628Q128.82 371.4 126.92 371.4H120.08V386.524Z" /><path d="M161.94 363.192H180.636Q184.512 363.192 188.122 363.914Q191.732 364.636 194.543 366.384Q197.356 368.132 199.028 371.096Q200.7 374.06 200.7 378.62Q200.7 384.472 197.47 388.424Q194.24 392.376 188.236 393.212L202.524 417H190.972L178.508 394.2H171.516V417H161.94ZM178.964 385.992Q181.016 385.992 183.068 385.802Q185.12 385.612 186.83 384.89Q188.54 384.168 189.604 382.686Q190.668 381.204 190.668 378.544Q190.668 376.188 189.68 374.744Q188.692 373.3 187.096 372.578Q185.5 371.856 183.562 371.628Q181.624 371.4 179.8 371.4H171.516V385.992Z" /><path d="M232.224 363.192H240.508L263.688 417H252.744L247.728 404.688H224.396L219.532 417H208.816ZM244.384 396.48 236.1 374.592 227.664 396.48Z" /><path d="M287.84 388.88 269.904 363.192H281.988L294.68 383.104L307.219 363.192H318.847L301.216 388.88L320.748 417H308.587L294.376 394.276L280.24 417H268.688Z" /><path d="M331.524 363.192H341.099V417H331.524Z" /><path d="M384.251 374.744Q382.731 372.54 380.186 371.514Q377.64 370.488 374.828 370.488Q373.155 370.488 371.597 370.868Q370.039 371.248 368.785 372.084Q367.532 372.92 366.772 374.25Q366.012 375.58 366.012 377.404Q366.012 380.14 367.912 381.584Q369.811 383.028 372.623 384.092Q375.436 385.156 378.78 386.144Q382.123 387.132 384.936 388.88Q387.748 390.628 389.648 393.515Q391.548 396.404 391.548 401.192Q391.548 405.524 389.952 408.754Q388.356 411.984 385.658 414.111Q382.96 416.24 379.388 417.304Q375.816 418.368 371.864 418.368Q366.847 418.368 362.212 416.696Q357.575 415.024 354.231 411.072L361.452 404.08Q363.2 406.74 366.049 408.222Q368.9 409.704 372.092 409.704Q373.763 409.704 375.435 409.248Q377.107 408.792 378.476 407.88Q379.844 406.968 380.679 405.562Q381.515 404.156 381.515 402.332Q381.515 399.368 379.616 397.772Q377.715 396.176 374.904 395.073Q372.092 393.972 368.748 392.984Q365.404 391.996 362.592 390.286Q359.78 388.576 357.88 385.726Q355.979 382.876 355.979 378.088Q355.979 373.908 357.689 370.868Q359.4 367.828 362.174 365.813Q364.948 363.8 368.52 362.812Q372.092 361.824 375.816 361.824Q380.072 361.824 384.062 363.116Q388.051 364.408 391.243 367.372Z" />
  </g>
</svg>
